<svg width="52" height="34" viewBox="0 0 52 34" fill="none" xmlns="http://www.w3.org/2000/svg">
<path d="M9.42 6.2C9.42 6.06667 9.48667 6 9.62 6H11.14C11.2733 6 11.34 6.06667 11.34 6.2V19.8C11.34 19.9333 11.2733 20 11.14 20H9.62C9.48667 20 9.42 19.9333 9.42 19.8V13.86C9.42 13.8067 9.39333 13.78 9.34 13.78H3.64C3.58667 13.78 3.56 13.8067 3.56 13.86V19.8C3.56 19.9333 3.49333 20 3.36 20H1.84C1.70667 20 1.64 19.9333 1.64 19.8V6.2C1.64 6.06667 1.70667 6 1.84 6H3.36C3.49333 6 3.56 6.06667 3.56 6.2V12.04C3.56 12.0933 3.58667 12.12 3.64 12.12H9.34C9.39333 12.12 9.42 12.0933 9.42 12.04V6.2ZM18.4506 20.16C17.464 20.16 16.604 19.9133 15.8706 19.42C15.1373 18.9133 14.624 18.2133 14.3306 17.32C14.0906 16.6 13.9706 15.7867 13.9706 14.88C13.9706 13.9333 14.084 13.1333 14.3106 12.48C14.604 11.6 15.1173 10.9133 15.8506 10.42C16.584 9.91333 17.4573 9.66 18.4706 9.66C19.4306 9.66 20.264 9.91333 20.9706 10.42C21.6906 10.9133 22.204 11.5933 22.5106 12.46C22.7506 13.14 22.8706 13.94 22.8706 14.86C22.8706 15.7933 22.7506 16.6133 22.5106 17.32C22.2173 18.2133 21.7106 18.9133 20.9906 19.42C20.2706 19.9133 19.424 20.16 18.4506 20.16ZM18.4506 18.5C18.984 18.5 19.4506 18.3533 19.8506 18.06C20.2506 17.7533 20.5373 17.3267 20.7106 16.78C20.8573 16.2733 20.9306 15.6467 20.9306 14.9C20.9306 14.1533 20.864 13.5333 20.7306 13.04C20.5573 12.4933 20.2706 12.0733 19.8706 11.78C19.4706 11.4733 18.984 11.32 18.4106 11.32C17.864 11.32 17.3906 11.4733 16.9906 11.78C16.5906 12.0733 16.304 12.4933 16.1306 13.04C15.984 13.5067 15.9106 14.1267 15.9106 14.9C15.9106 15.6733 15.984 16.3 16.1306 16.78C16.2906 17.3267 16.5706 17.7533 16.9706 18.06C17.384 18.3533 17.8773 18.5 18.4506 18.5ZM35.9644 9.68C36.9777 9.68 37.7777 9.98667 38.3644 10.6C38.951 11.2 39.2444 12.04 39.2444 13.12V19.8C39.2444 19.9333 39.1777 20 39.0444 20H37.5444C37.411 20 37.3444 19.9333 37.3444 19.8V13.52C37.3444 12.8533 37.1577 12.3267 36.7844 11.94C36.4244 11.54 35.9377 11.34 35.3244 11.34C34.711 11.34 34.211 11.5333 33.8244 11.92C33.4377 12.3067 33.2444 12.8267 33.2444 13.48V19.8C33.2444 19.9333 33.1777 20 33.0444 20H31.5444C31.411 20 31.3444 19.9333 31.3444 19.8V13.52C31.3444 12.8533 31.1577 12.3267 30.7844 11.94C30.4244 11.54 29.9377 11.34 29.3244 11.34C28.711 11.34 28.2177 11.5333 27.8444 11.92C27.4844 12.3067 27.3044 12.8267 27.3044 13.48V19.8C27.3044 19.9333 27.2377 20 27.1044 20H25.5844C25.451 20 25.3844 19.9333 25.3844 19.8V10.02C25.3844 9.88667 25.451 9.82 25.5844 9.82H27.1044C27.2377 9.82 27.3044 9.88667 27.3044 10.02V10.7C27.3044 10.7267 27.311 10.7467 27.3244 10.76C27.351 10.7733 27.3777 10.7667 27.4044 10.74C27.991 10.0333 28.8444 9.68 29.9644 9.68C30.6444 9.68 31.2244 9.81333 31.7044 10.08C32.1844 10.3333 32.5577 10.7133 32.8244 11.22C32.8644 11.2733 32.9044 11.2733 32.9444 11.22C33.2644 10.7 33.6844 10.3133 34.2044 10.06C34.7377 9.80667 35.3244 9.68 35.9644 9.68ZM50.0306 13.64C50.084 14.1867 50.104 14.8 50.0906 15.48C50.0906 15.6133 50.024 15.68 49.8906 15.68H43.5106C43.4573 15.68 43.4306 15.7067 43.4306 15.76C43.4306 16.2133 43.4706 16.56 43.5506 16.8C43.6973 17.3333 43.9906 17.7533 44.4306 18.06C44.884 18.3533 45.4506 18.5 46.1306 18.5C47.1173 18.5 47.8773 18.0933 48.4106 17.28C48.4773 17.1467 48.564 17.1267 48.6706 17.22L49.8106 17.98C49.904 18.06 49.924 18.1467 49.8706 18.24C49.4973 18.84 48.964 19.3133 48.2706 19.66C47.5906 20.0067 46.8173 20.18 45.9506 20.18C44.9773 20.18 44.1573 19.9667 43.4906 19.54C42.824 19.1133 42.324 18.5067 41.9906 17.72C41.6706 16.9333 41.5106 15.98 41.5106 14.86C41.5106 13.8867 41.584 13.1467 41.7306 12.64C41.9706 11.72 42.4506 10.9933 43.1706 10.46C43.8906 9.92667 44.764 9.66 45.7906 9.66C47.1373 9.66 48.144 10 48.8106 10.68C49.4773 11.3467 49.884 12.3333 50.0306 13.64ZM45.7906 11.32C45.2173 11.32 44.744 11.4667 44.3706 11.76C43.9973 12.04 43.744 12.42 43.6106 12.9C43.5173 13.1933 43.4573 13.5667 43.4306 14.02C43.4306 14.0733 43.4573 14.1 43.5106 14.1H48.0906C48.144 14.1 48.1706 14.0733 48.1706 14.02C48.144 13.58 48.104 13.2533 48.0506 13.04C47.9173 12.52 47.6506 12.1067 47.2506 11.8C46.864 11.48 46.3773 11.32 45.7906 11.32Z" fill="#112B3C"/>
<rect x="17" y="30" width="18" height="4" rx="2" fill="#E61C5D"/>
</svg>
